# xmcd
#
# Track frame offsets:
#	150
#	17126
#	34137
#	50075
#	63662
#	82386
#	101215
#	115352
#	124961
#	140207
#	167844
#
# Disc length: 2433 seconds
#
# Revision: 0
# Processed by: cddbd v1.5.2PL0 Copyright (c) Steve Scherf et al.
# Submitted via: EasyCDDAExtractor 10.0.3.1
#
DISCID=b0097f0b
DTITLE=Kristin Asbjørnsen - Wayfaring Stranger - A Spiritual Songbook
DYEAR=2006
DGENRE=Gospel
TTITLE0=Trying To Get Home
TTITLE1=I'm On My Way
TTITLE2=Ride Up In The Chariot
TTITLE3=Now We Take This Feeble Body
TTITLE4=In That Morning
TTITLE5=Come Go With Me
TTITLE6=Wish I Was In Heaven Sitting Down
TTITLE7=Going Up
TTITLE8=Don't Be Weary, Traveler
TTITLE9=I Am A Poor Wayfaring Stranger/Going Over Jordan
TTITLE10=Oh Glory
EXTD=
EXTT0=
EXTT1=
EXTT2=
EXTT3=
EXTT4=
EXTT5=
EXTT6=
EXTT7=
EXTT8=
EXTT9=
EXTT10=
PLAYORDER=
